<svg width="24" height="24" viewBox="0 0 24 24" fill="none" xmlns="http://www.w3.org/2000/svg">
<path d="M12 2C6.48 2 2 6.48 2 12C2 17.52 6.48 22 12 22C17.51 22 22 17.52 22 12C22 6.48 17.51 2 12 2ZM18.605 6.61C19.8358 8.10923 20.5169 9.98434 20.535 11.924C20.254 11.87 17.434 11.295 14.592 11.653C14.527 11.512 14.472 11.36 14.408 11.208C14.2312 10.791 14.0432 10.3788 13.844 9.972C16.989 8.692 18.421 6.848 18.605 6.61ZM12 3.475C14.17 3.475 16.154 4.289 17.662 5.623C17.51 5.839 16.219 7.564 13.182 8.703C11.783 6.133 10.232 4.028 9.993 3.703C10.6509 3.54933 11.3244 3.47282 12 3.475ZM8.367 4.278C9.51127 5.86443 10.5685 7.51186 11.534 9.213C7.542 10.276 4.017 10.253 3.638 10.253C3.91276 8.9601 4.48251 7.74815 5.30281 6.71172C6.12311 5.67529 7.17178 4.84239 8.367 4.278ZM3.453 12.01V11.75C3.823 11.76 7.965 11.815 12.228 10.535C12.478 11.012 12.705 11.5 12.922 11.988C12.813 12.021 12.694 12.053 12.586 12.086C8.182 13.506 5.839 17.389 5.644 17.715C4.23367 16.1496 3.45245 14.117 3.453 12.01ZM12 20.547C10.1014 20.5504 8.25659 19.9166 6.761 18.747C6.913 18.432 8.649 15.091 13.464 13.41C13.486 13.4 13.497 13.4 13.518 13.388C14.3304 15.4834 14.9408 17.6516 15.341 19.863C14.2858 20.317 13.1487 20.5498 12 20.547ZM16.761 19.082C16.675 18.562 16.219 16.067 15.101 12.998C17.781 12.575 20.124 13.269 20.416 13.367C20.2335 14.5201 19.8146 15.6229 19.1856 16.6064C18.5567 17.5899 17.7312 18.4327 16.761 19.082Z" fill="white"/>
</svg>
