<svg width="70" height="35" viewBox="0 0 70 35" fill="none" xmlns="http://www.w3.org/2000/svg">
<g clip-path="url(#clip0_174_3267)">
<path d="M12.458 20.1999C13.9448 20.1999 15.1501 18.9933 15.1501 17.5048C15.1501 16.0163 13.9448 14.8097 12.458 14.8097C10.9711 14.8097 9.76581 16.0163 9.76581 17.5048C9.76581 18.9933 10.9711 20.1999 12.458 20.1999Z" stroke="#2563EB" stroke-miterlimit="10"/>
<path d="M35.8691 14.9824L32.9909 31.4027C32.7627 33.1054 34.6495 32.6216 34.7895 31.2721L37.5948 14.9805H40.2793L37.4203 31.7924C37.754 32.8961 39.0924 32.5967 39.2343 31.4987L42.005 14.9805H44.8813L41.9514 31.7232C41.4605 33.8521 40.1508 35.1516 37.8709 34.952C36.312 34.8157 36.0934 33.6793 35.7521 33.6064C35.5642 33.5661 34.5364 34.6948 33.7694 34.8579C31.1118 35.4204 29.8769 34.2897 30.1415 31.6081L32.9928 14.9786H35.8691V14.9824Z" fill="#2563EB"/>
<path d="M42.9638 34.9462L46.26 15.3069L46.4019 15.065C48.5188 15.065 52.8677 14.1589 53.1093 17.2169C53.1975 18.336 51.8955 25.8186 51.4104 26.7976C51.0365 27.5539 50.2963 27.8514 49.4814 27.8437C49.3893 28.3582 50.0355 28.3524 50.3577 28.7901C51.1688 29.89 50.2445 33.4835 50.4401 34.9443H47.5639C47.9282 33.3108 47.6809 31.5466 47.9436 29.8651C47.8419 29.2796 47.4258 29.1606 46.8909 29.1759C46.4652 29.1875 46.678 29.2201 46.5975 29.4677C46.0932 31.0034 46.1795 33.3184 45.6464 34.9462H42.9619H42.9638ZM47.1804 26.5C48.1181 26.5192 48.6281 26.6958 48.9713 25.6996C49.6731 23.6552 49.5236 20.6357 50.1909 18.4953C50.1909 17.4722 48.7873 17.3877 48.5591 17.9943L47.1785 26.5H47.1804Z" fill="#2563EB"/>
<path d="M60.6047 14.9825L59.0707 34.9463H56.1945L56.578 31.8749C56.158 31.9536 54.8254 31.7079 54.6375 31.9862C54.2961 32.4949 54.2079 34.2686 53.8935 34.9463H51.209L56.4821 14.9825H60.6047ZM58.3018 17.6699H57.7285L55.2338 29.3794H56.9615L58.3018 17.6699Z" fill="#2563EB"/>
<path d="M31.6501 14.9824L31.4584 17.6699H28.3904L27.6234 22.4689H30.3079L29.9148 25.1467L27.1344 25.3387L25.8976 32.4508H28.9656L28.1028 34.9463H22.6379L26.0894 14.9824H31.6501Z" fill="#2563EB"/>
<path d="M4.2204 6.33275L2.29907 17.8484H0L3.25782 0C6.12256 5.30001 9.46283 10.3889 12.4867 15.6217C12.9776 16.1208 13.6526 16.0094 14.0782 16.7139C15.3073 18.7545 12.341 20.3784 11.2231 18.8063C10.7878 18.1939 11.0448 17.5873 10.7878 16.9385C9.93645 14.802 4.22232 6.33275 4.22232 6.33275H4.2204Z" fill="#2563EB"/>
<path d="M66.1653 14.9825L63.289 32.4508H70.0003C69.6129 33.2417 69.7222 34.261 69.1374 34.9463H60.0293L63.4808 14.9825H66.1653Z" fill="#2563EB"/>
<path d="M24.937 15.1744L21.2976 34.7524L12.667 20.1673C13.3036 20.0751 13.9555 19.6509 14.7206 19.1096C16.2776 21.8911 17.8883 24.8338 19.6064 27.5174C19.7118 27.6825 20.4712 28.9667 20.4712 28.9667L22.636 15.1725H24.937V15.1744Z" fill="#2563EB"/>
</g>
<defs>
<clipPath id="clip0_174_3267">
<rect width="70" height="35" fill="white"/>
</clipPath>
</defs>
</svg>
