<svg viewBox="0 0 900 500" xmlns="http://www.w3.org/2000/svg">
  <rect width="900" height="500" fill="#EFF6FF"/>
  <!-- Android phone frame - slightly larger top notch area -->
  <rect x="295" y="40" width="310" height="430" rx="36" fill="#0F172A"/>
  <rect x="311" y="72" width="278" height="366" rx="20" fill="#1E40AF"/>
  <!-- Punch hole camera -->
  <circle cx="450" cy="90" r="10" fill="#0F172A"/>
  <!-- Status bar -->
  <rect x="320" y="79" width="60" height="7" rx="3" fill="white" opacity="0.2"/>
  <!-- Material You UI elements -->
  <rect x="326" y="110" width="260" height="80" rx="16" fill="white" opacity="0.12"/>
  <rect x="344" y="124" width="80" height="14" rx="4" fill="white" opacity="0.6"/>
  <rect x="344" y="146" width="140" height="9" rx="3" fill="white" opacity="0.3"/>
  <rect x="344" y="162" width="100" height="9" rx="3" fill="white" opacity="0.2"/>
  <!-- Floating action elements -->
  <rect x="326" y="208" width="124" height="124" rx="24" fill="white" opacity="0.1"/>
  <rect x="462" y="208" width="124" height="58" rx="16" fill="white" opacity="0.1"/>
  <rect x="462" y="274" width="124" height="58" rx="16" fill="white" opacity="0.08"/>
  <!-- Bottom nav -->
  <rect x="311" y="390" width="278" height="48" rx="0" fill="#0F172A" opacity="0.3"/>
  <circle cx="395" cy="414" r="12" fill="white" opacity="0.5"/>
  <circle cx="450" cy="414" r="12" fill="white" opacity="0.2"/>
  <circle cx="505" cy="414" r="12" fill="white" opacity="0.2"/>
  <!-- Decorative -->
  <circle cx="140" cy="180" r="50" fill="#2563EB" opacity="0.07"/>
  <circle cx="760" cy="370" r="65" fill="#2563EB" opacity="0.07"/>
</svg>
