<svg viewBox="0 0 900 500" xmlns="http://www.w3.org/2000/svg">
  <rect width="900" height="500" fill="#0F172A"/>
  <!-- Terminal/code window -->
  <rect x="60" y="50" width="780" height="400" rx="20" fill="#1E293B"/>
  <!-- Traffic lights -->
  <circle cx="100" cy="88" r="10" fill="#EF4444"/>
  <circle cx="130" cy="88" r="10" fill="#F59E0B"/>
  <circle cx="160" cy="88" r="10" fill="#10B981"/>
  <rect x="60" y="108" width="780" height="2" fill="#334155"/>
  <!-- Code lines -->
  <rect x="90" y="135" width="60" height="12" rx="3" fill="#2563EB" opacity="0.9"/>
  <rect x="160" y="135" width="120" height="12" rx="3" fill="#60A5FA" opacity="0.7"/>
  <rect x="290" y="135" width="80" height="12" rx="3" fill="#34D399" opacity="0.7"/>
  <rect x="90" y="162" width="40" height="12" rx="3" fill="#A78BFA" opacity="0.8"/>
  <rect x="140" y="162" width="100" height="12" rx="3" fill="#60A5FA" opacity="0.5"/>
  <rect x="250" y="162" width="60" height="12" rx="3" fill="#F87171" opacity="0.7"/>
  <rect x="320" y="162" width="180" height="12" rx="3" fill="#94A3B8" opacity="0.4"/>
  <rect x="110" y="189" width="80" height="12" rx="3" fill="#34D399" opacity="0.6"/>
  <rect x="200" y="189" width="140" height="12" rx="3" fill="#60A5FA" opacity="0.4"/>
  <rect x="110" y="216" width="60" height="12" rx="3" fill="#A78BFA" opacity="0.7"/>
  <rect x="180" y="216" width="200" height="12" rx="3" fill="#94A3B8" opacity="0.35"/>
  <rect x="90" y="243" width="40" height="12" rx="3" fill="#2563EB" opacity="0.9"/>
  <!-- Response block -->
  <rect x="90" y="278" width="720" height="100" rx="12" fill="#0F172A" opacity="0.5"/>
  <rect x="110" y="296" width="50" height="10" rx="3" fill="#10B981" opacity="0.8"/>
  <rect x="170" y="296" width="120" height="10" rx="3" fill="#94A3B8" opacity="0.4"/>
  <rect x="110" y="316" width="200" height="10" rx="3" fill="#60A5FA" opacity="0.5"/>
  <rect x="110" y="336" width="150" height="10" rx="3" fill="#94A3B8" opacity="0.3"/>
  <rect x="110" y="356" width="60" height="10" rx="3" fill="#F87171" opacity="0.5"/>
  <text x="660" y="300" font-family="system-ui,monospace" font-size="11" fill="#10B981" opacity="0.6">200 OK</text>
</svg>
