<svg viewBox="0 0 900 500" xmlns="http://www.w3.org/2000/svg">
  <rect width="900" height="500" fill="#EFF6FF"/>
  <!-- Two phones side by side -->
  <!-- Phone 1 (iOS style) -->
  <rect x="150" y="50" width="260" height="400" rx="38" fill="#0F172A"/>
  <rect x="164" y="78" width="232" height="344" rx="22" fill="#1E3A8A"/>
  <rect x="222" y="88" width="116" height="18" rx="9" fill="#0F172A"/>
  <rect x="175" y="120" width="220" height="36" rx="8" fill="white" opacity="0.15"/>
  <rect x="175" y="168" width="100" height="100" rx="18" fill="#2563EB" opacity="0.7"/>
  <rect x="288" y="168" width="100" height="100" rx="18" fill="#7C3AED" opacity="0.7"/>
  <rect x="175" y="280" width="213" height="10" rx="3" fill="white" opacity="0.25"/>
  <rect x="175" y="300" width="150" height="8" rx="3" fill="white" opacity="0.15"/>
  <rect x="232" y="390" width="96" height="5" rx="2" fill="white" opacity="0.35"/>
  <!-- Connector / equals sign in middle -->
  <rect x="422" y="218" width="56" height="16" rx="8" fill="#2563EB" opacity="0.4"/>
  <rect x="422" y="244" width="56" height="16" rx="8" fill="#2563EB" opacity="0.4"/>
  <!-- Phone 2 (Android style) -->
  <rect x="490" y="50" width="260" height="400" rx="30" fill="#0F172A"/>
  <rect x="504" y="78" width="232" height="344" rx="18" fill="#1E40AF"/>
  <circle cx="620" cy="92" r="9" fill="#0F172A"/>
  <rect x="515" y="115" width="220" height="36" rx="12" fill="white" opacity="0.12"/>
  <rect x="515" y="162" width="100" height="100" rx="18" fill="#2563EB" opacity="0.7"/>
  <rect x="628" y="162" width="100" height="100" rx="18" fill="#059669" opacity="0.7"/>
  <rect x="515" y="276" width="213" height="10" rx="3" fill="white" opacity="0.25"/>
  <rect x="515" y="296" width="150" height="8" rx="3" fill="white" opacity="0.15"/>
  <rect x="504" y="382" width="232" height="40" rx="0" fill="#0F172A" opacity="0.25"/>
  <!-- Code symbol between / below -->
  <text x="450" y="478" font-family="system-ui,monospace" font-size="13" fill="#2563EB" text-anchor="middle" opacity="0.45" letter-spacing="2">REACT NATIVE · FLUTTER</text>
</svg>
