<svg viewBox="0 0 900 500" xmlns="http://www.w3.org/2000/svg">
  <rect width="900" height="500" fill="#EFF6FF"/>
  <!-- Dashboard window -->
  <rect x="80" y="60" width="740" height="380" rx="20" fill="#0F172A"/>
  <rect x="80" y="60" width="740" height="48" rx="20" fill="#1E293B"/>
  <rect x="80" y="88" width="740" height="20" fill="#1E293B"/>
  <!-- Traffic lights -->
  <circle cx="116" cy="84" r="9" fill="#EF4444" opacity="0.8"/>
  <circle cx="143" cy="84" r="9" fill="#F59E0B" opacity="0.8"/>
  <circle cx="170" cy="84" r="9" fill="#10B981" opacity="0.8"/>
  <!-- Uptime metric cards -->
  <rect x="108" y="125" width="200" height="90" rx="14" fill="#1E293B"/>
  <rect x="124" y="140" width="80" height="12" rx="4" fill="#94A3B8" opacity="0.5"/>
  <text x="124" y="195" font-family="system-ui,sans-serif" font-size="28" fill="#10B981" font-weight="700">99.9%</text>
  <rect x="330" y="125" width="200" height="90" rx="14" fill="#1E293B"/>
  <rect x="346" y="140" width="80" height="12" rx="4" fill="#94A3B8" opacity="0.5"/>
  <text x="346" y="193" font-family="system-ui,sans-serif" font-size="28" fill="#60A5FA" font-weight="700">4.9★</text>
  <rect x="552" y="125" width="200" height="90" rx="14" fill="#1E293B"/>
  <rect x="568" y="140" width="80" height="12" rx="4" fill="#94A3B8" opacity="0.5"/>
  <text x="568" y="193" font-family="system-ui,sans-serif" font-size="28" fill="#A78BFA" font-weight="700">&lt;1ms</text>
  <!-- Uptime graph -->
  <rect x="108" y="235" width="644" height="160" rx="14" fill="#1E293B"/>
  <polyline points="130,375 180,360 230,350 280,355 330,345 380,340 430,330 480,345 530,328 580,320 600,315 650,310 700,322 730,318" stroke="#10B981" stroke-width="2.5" fill="none"/>
  <polyline points="130,375 180,360 230,350 280,355 330,345 380,340 430,330 480,345 530,328 580,320 600,315 650,310 700,322 730,318 730,395 130,395" fill="#10B981" opacity="0.08"/>
  <!-- Alert dot -->
  <circle cx="480" cy="345" r="6" fill="#F59E0B"/>
  <rect x="488" y="320" width="90" height="32" rx="6" fill="#F59E0B" opacity="0.15"/>
</svg>
