<svg width="18" height="18" viewBox="0 0 18 18" fill="none" xmlns="http://www.w3.org/2000/svg">
<g clip-path="url(#clip0_174_3379)">
<path d="M13.2861 4.35129C13.2589 4.15429 13.1545 3.97617 12.996 3.85609C12.8375 3.73601 12.6377 3.68381 12.4407 3.71097L6.49692 4.5313C6.39804 4.5432 6.30253 4.57467 6.21595 4.62388C6.12936 4.67309 6.05345 4.73905 5.99263 4.81791C5.93181 4.89677 5.88731 4.98695 5.86172 5.08319C5.83612 5.17944 5.82996 5.27981 5.84357 5.37847C5.85719 5.47712 5.89031 5.57207 5.94102 5.65779C5.99172 5.7435 6.05899 5.81826 6.1389 5.8777C6.2188 5.93714 6.30974 5.98006 6.40642 6.00398C6.50309 6.0279 6.60356 6.03232 6.70196 6.01699L10.8522 5.4442L4.85521 13.3616C4.73511 13.5202 4.68291 13.7199 4.71011 13.917C4.7373 14.114 4.84166 14.2922 5.00022 14.4123C5.15878 14.5324 5.35856 14.5846 5.5556 14.5574C5.75265 14.5302 5.93082 14.4259 6.05092 14.2673L12.0479 6.34989L12.6207 10.5002C12.651 10.6945 12.7564 10.8691 12.9142 10.9865C13.072 11.1039 13.2695 11.1546 13.4643 11.1277C13.6591 11.1008 13.8356 10.9985 13.9557 10.8427C14.0758 10.687 14.1299 10.4904 14.1064 10.2951L13.2861 4.35129Z" fill="black"/>
</g>
<defs>
<clipPath id="clip0_174_3379">
<rect width="18" height="18" fill="white"/>
</clipPath>
</defs>
</svg>
