<svg viewBox="0 0 900 500" xmlns="http://www.w3.org/2000/svg">
  <rect width="900" height="500" fill="#EFF6FF"/>
  <!-- Landing page preview -->
  <rect x="100" y="40" width="700" height="420" rx="20" fill="white" stroke="#DCE7F7" stroke-width="2"/>
  <!-- Hero gradient bg -->
  <rect x="100" y="40" width="700" height="200" rx="20" fill="#1E3A8A"/>
  <rect x="100" y="220" width="700" height="20" fill="#1E3A8A"/>
  <!-- Big headline -->
  <rect x="180" y="90" width="340" height="40" rx="8" fill="white" opacity="0.75"/>
  <rect x="180" y="142" width="240" height="18" rx="5" fill="white" opacity="0.3"/>
  <!-- CTA button -->
  <rect x="180" y="176" width="160" height="38" rx="19" fill="#3B82F6"/>
  <rect x="352" y="176" width="120" height="38" rx="19" fill="white" opacity="0.15"/>
  <!-- Conversion funnel below hero -->
  <rect x="150" y="278" width="600" height="160" rx="14" fill="#F8FAFC"/>
  <!-- Funnel steps -->
  <rect x="180" y="298" width="500" height="22" rx="6" fill="#E2EDFF"/>
  <rect x="180" y="298" width="500" height="22" rx="6" fill="#3B82F6" opacity="0.8"/>
  <text x="685" y="314" font-family="system-ui,sans-serif" font-size="11" fill="white">100%</text>
  <rect x="210" y="332" width="420" height="18" rx="5" fill="#E2EDFF"/>
  <rect x="210" y="332" width="360" height="18" rx="5" fill="#3B82F6" opacity="0.6"/>
  <rect x="240" y="362" width="340" height="16" rx="4" fill="#E2EDFF"/>
  <rect x="240" y="362" width="240" height="16" rx="4" fill="#3B82F6" opacity="0.45"/>
  <rect x="270" y="390" width="280" height="14" rx="3" fill="#E2EDFF"/>
  <rect x="270" y="390" width="140" height="14" rx="3" fill="#10B981" opacity="0.7"/>
  <text x="450" y="480" font-family="system-ui,sans-serif" font-size="12" fill="#3B82F6" text-anchor="middle" opacity="0.4" letter-spacing="3">CONVERSION OPTIMISED</text>
</svg>
