<svg viewBox="0 0 900 500" xmlns="http://www.w3.org/2000/svg">
  <rect width="900" height="500" fill="#0F172A"/>
  <!-- Dashboard layout -->
  <!-- Sidebar -->
  <rect x="0" y="0" width="200" height="500" fill="#1E293B"/>
  <rect x="24" y="30" width="100" height="20" rx="5" fill="#3B82F6"/>
  <rect x="24" y="80" width="152" height="36" rx="10" fill="#3B82F6" opacity="0.2"/>
  <rect x="24" y="126" width="152" height="36" rx="10" fill="white" opacity="0.05"/>
  <rect x="24" y="172" width="152" height="36" rx="10" fill="white" opacity="0.05"/>
  <rect x="24" y="218" width="152" height="36" rx="10" fill="white" opacity="0.05"/>
  <rect x="24" y="264" width="152" height="36" rx="10" fill="white" opacity="0.05"/>
  <!-- Main content -->
  <!-- Top bar -->
  <rect x="200" y="0" width="700" height="56" fill="#1E293B"/>
  <rect x="560" y="16" width="120" height="24" rx="12" fill="#3B82F6" opacity="0.25"/>
  <circle cx="840" cy="28" r="18" fill="#3B82F6" opacity="0.3"/>
  <!-- Metric cards -->
  <rect x="220" y="76" width="155" height="90" rx="14" fill="#1E293B"/>
  <rect x="394" y="76" width="155" height="90" rx="14" fill="#1E293B"/>
  <rect x="568" y="76" width="155" height="90" rx="14" fill="#1E293B"/>
  <rect x="742" y="76" width="140" height="90" rx="14" fill="#1E293B"/>
  <text x="240" y="126" font-family="system-ui,sans-serif" font-size="22" fill="#3B82F6" font-weight="700">2,481</text>
  <text x="414" y="126" font-family="system-ui,sans-serif" font-size="22" fill="#10B981" font-weight="700">94.2%</text>
  <text x="588" y="126" font-family="system-ui,sans-serif" font-size="22" fill="#A78BFA" font-weight="700">$12.4k</text>
  <text x="762" y="126" font-family="system-ui,sans-serif" font-size="22" fill="#F59E0B" font-weight="700">148</text>
  <!-- Chart area -->
  <rect x="220" y="186" width="450" height="200" rx="14" fill="#1E293B"/>
  <polyline points="250,360 300,330 360,340 420,300 480,310 540,280 600,290 650,260" stroke="#3B82F6" stroke-width="2.5" fill="none"/>
  <polyline points="250,360 300,330 360,340 420,300 480,310 540,280 600,290 650,260 650,386 250,386" fill="#3B82F6" opacity="0.08"/>
  <!-- Table area -->
  <rect x="688" y="186" width="194" height="200" rx="14" fill="#1E293B"/>
  <rect x="704" y="204" width="160" height="16" rx="4" fill="white" opacity="0.08"/>
  <rect x="704" y="228" width="160" height="10" rx="3" fill="white" opacity="0.08"/>
  <rect x="704" y="248" width="160" height="10" rx="3" fill="white" opacity="0.06"/>
  <rect x="704" y="268" width="160" height="10" rx="3" fill="white" opacity="0.05"/>
</svg>
