<svg viewBox="0 0 900 500" xmlns="http://www.w3.org/2000/svg">
  <rect width="900" height="500" fill="#EFF6FF"/>
  <!-- Browser frame -->
  <rect x="80" y="50" width="740" height="400" rx="20" fill="white" stroke="#DCE7F7" stroke-width="2"/>
  <rect x="80" y="50" width="740" height="54" rx="20" fill="#F8FAFC"/>
  <rect x="80" y="84" width="740" height="20" fill="#F8FAFC"/>
  <!-- Browser controls -->
  <circle cx="118" cy="77" r="9" fill="#EF4444" opacity="0.6"/>
  <circle cx="145" cy="77" r="9" fill="#F59E0B" opacity="0.6"/>
  <circle cx="172" cy="77" r="9" fill="#10B981" opacity="0.6"/>
  <!-- URL bar -->
  <rect x="210" y="64" width="420" height="26" rx="13" fill="#E2E8F0"/>
  <circle cx="228" cy="77" r="6" fill="#94A3B8" opacity="0.5"/>
  <rect x="242" y="73" width="100" height="8" rx="4" fill="#64748B" opacity="0.4"/>
  <!-- Hero section of site -->
  <rect x="80" y="104" width="740" height="180" fill="#1E3A8A"/>
  <!-- Nav bar -->
  <rect x="110" y="120" width="50" height="14" rx="4" fill="white" opacity="0.6"/>
  <rect x="580" y="120" width="40" height="14" rx="4" fill="white" opacity="0.3"/>
  <rect x="634" y="120" width="40" height="14" rx="4" fill="white" opacity="0.3"/>
  <rect x="688" y="120" width="40" height="14" rx="4" fill="white" opacity="0.3"/>
  <rect x="742" y="116" width="60" height="22" rx="11" fill="#3B82F6"/>
  <!-- Hero text -->
  <rect x="110" y="158" width="280" height="32" rx="6" fill="white" opacity="0.7"/>
  <rect x="110" y="200" width="200" height="16" rx="4" fill="white" opacity="0.3"/>
  <rect x="110" y="225" width="80" height="26" rx="13" fill="#3B82F6"/>
  <!-- Hero image placeholder -->
  <rect x="500" y="118" width="290" height="150" rx="12" fill="white" opacity="0.08"/>
  <!-- Feature cards -->
  <rect x="98" y="302" width="200" height="100" rx="14" fill="#F8FAFC" stroke="#E2E8F0" stroke-width="1"/>
  <rect x="116" y="320" width="40" height="40" rx="10" fill="#3B82F6" opacity="0.2"/>
  <rect x="116" y="370" width="120" height="10" rx="3" fill="#0F172A" opacity="0.2"/>
  <rect x="316" y="302" width="200" height="100" rx="14" fill="#F8FAFC" stroke="#E2E8F0" stroke-width="1"/>
  <rect x="334" y="320" width="40" height="40" rx="10" fill="#3B82F6" opacity="0.2"/>
  <rect x="334" y="370" width="120" height="10" rx="3" fill="#0F172A" opacity="0.2"/>
  <rect x="534" y="302" width="200" height="100" rx="14" fill="#F8FAFC" stroke="#E2E8F0" stroke-width="1"/>
  <rect x="552" y="320" width="40" height="40" rx="10" fill="#3B82F6" opacity="0.2"/>
  <rect x="552" y="370" width="120" height="10" rx="3" fill="#0F172A" opacity="0.2"/>
</svg>
