<svg viewBox="0 0 900 500" xmlns="http://www.w3.org/2000/svg">
  <rect width="900" height="500" fill="#EFF6FF"/>
  <!-- Google search result style -->
  <rect x="80" y="40" width="740" height="420" rx="20" fill="white" stroke="#DCE7F7" stroke-width="1.5"/>
  <!-- Search bar at top -->
  <rect x="110" y="68" width="640" height="44" rx="22" fill="#F8FAFC" stroke="#DCE7F7" stroke-width="1.5"/>
  <circle cx="142" cy="90" r="12" fill="none" stroke="#94A3B8" stroke-width="2"/>
  <line x1="150" y1="98" x2="158" y2="106" stroke="#94A3B8" stroke-width="2"/>
  <rect x="164" y="84" width="120" height="12" rx="4" fill="#0F172A" opacity="0.2"/>
  <!-- Rank #1 result (highlighted) -->
  <rect x="110" y="132" width="680" height="90" rx="14" fill="#EFF6FF" stroke="#3B82F6" stroke-width="1.5"/>
  <rect x="130" y="148" width="40" height="18" rx="4" fill="#3B82F6"/>
  <text x="150" y="161" font-family="system-ui,sans-serif" font-size="10" fill="white" text-anchor="middle">#1</text>
  <rect x="182" y="148" width="200" height="18" rx="4" fill="#3B82F6" opacity="0.7"/>
  <rect x="130" y="176" width="560" height="10" rx="3" fill="#0F172A" opacity="0.15"/>
  <rect x="130" y="196" width="400" height="8" rx="3" fill="#0F172A" opacity="0.1"/>
  <!-- Rank #2 result -->
  <rect x="110" y="240" width="680" height="80" rx="14" fill="#F8FAFC"/>
  <rect x="130" y="256" width="40" height="16" rx="4" fill="#94A3B8" opacity="0.3"/>
  <text x="150" y="268" font-family="system-ui,sans-serif" font-size="10" fill="#64748B" text-anchor="middle">#2</text>
  <rect x="182" y="256" width="160" height="16" rx="4" fill="#0F172A" opacity="0.15"/>
  <rect x="130" y="282" width="500" height="8" rx="3" fill="#0F172A" opacity="0.1"/>
  <rect x="130" y="298" width="360" height="8" rx="3" fill="#0F172A" opacity="0.07"/>
  <!-- Rank #3 result -->
  <rect x="110" y="338" width="680" height="80" rx="14" fill="#F8FAFC"/>
  <rect x="130" y="354" width="40" height="16" rx="4" fill="#94A3B8" opacity="0.2"/>
  <text x="150" y="366" font-family="system-ui,sans-serif" font-size="10" fill="#94A3B8" text-anchor="middle">#3</text>
  <rect x="182" y="354" width="130" height="16" rx="4" fill="#0F172A" opacity="0.1"/>
  <rect x="130" y="380" width="440" height="8" rx="3" fill="#0F172A" opacity="0.08"/>
  <rect x="130" y="396" width="300" height="8" rx="3" fill="#0F172A" opacity="0.06"/>
  <!-- Score badge -->
  <rect x="700" y="64" width="100" height="44" rx="22" fill="#3B82F6" opacity="0.1"/>
  <text x="750" y="91" font-family="system-ui,sans-serif" font-size="22" fill="#3B82F6" text-anchor="middle" font-weight="700">100</text>
</svg>
