<svg viewBox="0 0 900 500" xmlns="http://www.w3.org/2000/svg">
  <rect width="900" height="500" fill="#EFF6FF"/>
  <!-- Product grid -->
  <!-- Product card 1 -->
  <rect x="80" y="50" width="230" height="290" rx="20" fill="white" stroke="#DCE7F7" stroke-width="1.5"/>
  <rect x="80" y="50" width="230" height="160" rx="20" fill="#E2EDFF"/>
  <rect x="80" y="190" width="230" height="20" fill="#E2EDFF"/>
  <circle cx="195" cy="130" r="44" fill="#3B82F6" opacity="0.2"/>
  <rect x="104" y="225" width="140" height="14" rx="4" fill="#0F172A" opacity="0.5"/>
  <rect x="104" y="249" width="100" height="10" rx="3" fill="#0F172A" opacity="0.2"/>
  <rect x="104" y="270" width="70" height="22" rx="6" fill="#3B82F6" opacity="0.8"/>
  <rect x="240" y="268" width="50" height="26" rx="8" fill="#0F172A"/>
  <!-- Product card 2 -->
  <rect x="335" y="50" width="230" height="290" rx="20" fill="white" stroke="#DCE7F7" stroke-width="1.5"/>
  <rect x="335" y="50" width="230" height="160" rx="20" fill="#E8F4E8"/>
  <rect x="335" y="190" width="230" height="20" fill="#E8F4E8"/>
  <circle cx="450" cy="130" r="44" fill="#10B981" opacity="0.2"/>
  <rect x="359" y="225" width="140" height="14" rx="4" fill="#0F172A" opacity="0.5"/>
  <rect x="359" y="249" width="100" height="10" rx="3" fill="#0F172A" opacity="0.2"/>
  <rect x="359" y="270" width="70" height="22" rx="6" fill="#10B981" opacity="0.8"/>
  <rect x="495" y="268" width="50" height="26" rx="8" fill="#0F172A"/>
  <!-- Product card 3 -->
  <rect x="590" y="50" width="230" height="290" rx="20" fill="white" stroke="#DCE7F7" stroke-width="1.5"/>
  <rect x="590" y="50" width="230" height="160" rx="20" fill="#FEF3E2"/>
  <rect x="590" y="190" width="230" height="20" fill="#FEF3E2"/>
  <circle cx="705" cy="130" r="44" fill="#F59E0B" opacity="0.2"/>
  <rect x="614" y="225" width="140" height="14" rx="4" fill="#0F172A" opacity="0.5"/>
  <rect x="614" y="249" width="100" height="10" rx="3" fill="#0F172A" opacity="0.2"/>
  <rect x="614" y="270" width="70" height="22" rx="6" fill="#F59E0B" opacity="0.8"/>
  <rect x="750" y="268" width="50" height="26" rx="8" fill="#0F172A"/>
  <!-- Cart summary bar -->
  <rect x="80" y="368" width="740" height="90" rx="18" fill="#0F172A"/>
  <rect x="110" y="393" width="180" height="14" rx="4" fill="white" opacity="0.35"/>
  <rect x="110" y="415" width="120" height="10" rx="3" fill="white" opacity="0.2"/>
  <rect x="650" y="386" width="150" height="44" rx="14" fill="#3B82F6"/>
  <text x="725" y="412" font-family="system-ui,sans-serif" font-size="13" fill="white" text-anchor="middle" opacity="0.9">Checkout →</text>
</svg>
